<?xml version="1.0" standalone="no"?>
<!DOCTYPE svg PUBLIC "-//W3C//DTD SVG 20010904//EN"
 "http://www.w3.org/TR/2001/REC-SVG-20010904/DTD/svg10.dtd">
<svg version="1.0" xmlns="http://www.w3.org/2000/svg"
 width="221.000000pt" height="221.000000pt" viewBox="0 0 221.000000 221.000000"
 preserveAspectRatio="xMidYMid meet">
<metadata>
Created by potrace 1.11, written by Peter Selinger 2001-2013
</metadata>
<g transform="translate(0.000000,221.000000) scale(0.100000,-0.100000)"
fill="#000000" stroke="none">
<path d="M1315 2058 c-27 -5 -56 -10 -62 -10 -7 -1 -13 -5 -13 -10 0 -4 -8 -8
-17 -8 -55 -1 -274 -153 -397 -275 -160 -158 -328 -408 -376 -560 -7 -22 -16
-44 -20 -50 -4 -5 -11 -28 -15 -50 -9 -45 -12 -54 -15 -57 -3 -5 -11 -42 -16
-78 -3 -19 -8 -46 -11 -60 -8 -32 -11 -250 -3 -250 3 0 7 -15 8 -32 4 -58 51
-181 85 -226 80 -102 203 -180 317 -200 46 -8 187 -7 225 2 83 19 193 74 288
145 57 42 207 194 207 210 0 5 4 11 8 13 12 4 112 146 112 157 0 5 4 11 8 13
7 3 29 38 81 131 11 20 17 37 13 37 -4 0 -2 4 3 8 9 6 34 51 40 72 1 3 7 19
14 35 19 43 69 197 75 226 2 13 7 31 9 39 19 52 29 312 16 365 -5 17 -10 42
-13 56 -5 33 -54 139 -73 159 -7 8 -21 24 -31 36 -17 21 -203 145 -212 142 -3
-1 -15 4 -28 11 -29 15 -143 20 -207 9z m265 -156 c0 -7 3 -11 8 -8 18 11 78
-66 66 -86 -4 -7 -3 -8 4 -4 7 4 13 0 13 -11 2 -26 7 -53 15 -88 10 -44 8
-145 -4 -157 -6 -6 -7 -21 -2 -38 5 -16 6 -30 4 -33 -6 -6 -15 -45 -19 -82 -2
-16 -8 -31 -14 -33 -5 -2 -7 -10 -4 -18 3 -8 1 -20 -4 -27 -5 -6 -8 -22 -7
-34 0 -12 -3 -20 -7 -17 -5 3 -9 -5 -9 -18 0 -13 -5 -29 -12 -36 -7 -7 -9 -12
-5 -12 7 0 -50 -139 -65 -157 -6 -7 -7 -13 -4 -13 4 0 -2 -13 -13 -29 -12 -16
-21 -32 -21 -36 0 -11 -83 -150 -92 -153 -4 -2 -8 -8 -8 -14 0 -9 -57 -93 -85
-125 -5 -6 -35 -40 -65 -75 -30 -35 -76 -81 -102 -103 -27 -22 -56 -48 -65
-57 -10 -10 -23 -18 -29 -18 -7 0 -14 -4 -16 -8 -9 -21 -188 -102 -188 -85 0
3 -6 1 -12 -4 -18 -14 -87 -9 -129 9 -89 39 -140 150 -139 308 0 71 4 112 11
125 3 6 5 27 4 48 0 20 2 37 5 37 4 0 7 6 8 13 3 41 12 80 23 93 6 8 9 14 5
14 -3 0 0 16 8 35 9 20 16 37 16 40 1 2 4 14 7 25 3 11 10 20 15 20 5 0 7 4 4
9 -6 10 51 133 66 142 5 3 10 10 10 15 0 22 54 104 66 99 7 -3 10 0 7 6 -7 10
34 79 48 79 4 0 7 5 7 10 0 13 11 26 66 85 23 24 44 51 48 60 3 10 12 15 21
12 9 -4 12 -1 8 9 -5 12 7 19 30 15 4 0 6 3 5 7 -2 5 16 28 40 52 23 24 42 40
42 36 0 -4 14 6 30 23 17 16 39 33 50 36 11 4 17 11 14 17 -4 6 -2 8 4 4 6 -3
16 0 24 7 12 13 34 23 51 25 4 1 15 8 24 17 8 9 22 14 29 11 7 -3 18 3 24 12
8 15 11 15 20 2 8 -13 10 -12 10 3 0 10 4 16 9 12 5 -3 12 -1 16 5 3 5 11 10
16 10 6 0 7 -6 3 -12 -5 -9 -2 -9 9 1 9 7 17 10 17 5 0 -4 5 -3 10 2 15 15 80
12 80 -4z"/>
</g>
</svg>
